<?xml version="1.0" encoding="UTF-8"?>
<svg width="100pc" height="100pc" version="1.1" viewBox="0 0 423.3 423.3" xmlns="http://www.w3.org/2000/svg"><g transform="translate(-88.65 -110.1)"><g transform="matrix(2.488 0 0 2.487 15.74 -8.889)"><rect x="46.32" y="64.86" width="136.1" height="136.2" fill-rule="evenodd" stroke-width="3.519"/></g><path d="m300.3 400-100.3-246.5 200.6-2e-5z" fill="#fff" stroke="#fff" stroke-linecap="round" stroke-linejoin="round" stroke-width="2.188"/><g transform="matrix(2.186 0 0 2.139 452 -145)"><path transform="matrix(1 0 0 .8292 0 29.55)" d="m-66.18 157.9-26.08 15.06-8e-6-30.12z"/><path transform="matrix(-1 0 0 -.8292 0 29.55)" d="m72.53-157.9-26.08 15.06-8e-6-30.12z"/></g><g transform="matrix(2.488 0 0 2.481 131.8 -246.7)" fill-rule="evenodd" stroke="#fff" stroke-width=".5292"><circle cx="67.73" cy="198.6" r="2.004"/><circle cx="67.73" cy="221.1" r="2.004"/><circle cx="67.73" cy="243.6" r="2.004"/></g><g transform="matrix(2.488 0 0 2.481 131.8 -259.8)" fill-rule="evenodd" stroke="#fff" stroke-width=".5292"><circle cx="67.73" cy="276.6" r="2.004"/><circle cx="67.73" cy="292.8" r="2.004"/></g></g></svg>
